<svg width="18" height="19" viewBox="0 0 18 19" fill="none" xmlns="http://www.w3.org/2000/svg">
<path d="M16.0167 4.81933C16.6261 5.17905 17 5.83402 17 6.54166V15.6776C17 16.7822 16.1046 17.6776 15 17.6776H13C11.8954 17.6776 11 16.7822 11 15.6776V11.6775C11 10.573 10.1046 9.67746 9 9.67746C7.8954 9.67746 7 10.573 7 11.6775V15.6776C7 16.7822 6.10457 17.6776 5 17.6776H3C1.89543 17.6776 1 16.7822 1 15.6776V6.54166C1 5.83402 1.37395 5.17905 1.98335 4.81933L7.9833 1.27767C8.6106 0.907443 9.3894 0.907443 10.0167 1.27767L16.0167 4.81933Z" stroke="black" stroke-width="1.3" stroke-linecap="round" stroke-linejoin="round"/>
</svg>
